<svg width="128" height="128" version="1.1" xmlns="http://www.w3.org/2000/svg" desc="Created with imagetracer.js version 1.2.6" ><path fill="rgb(0,0,0)" stroke="rgb(0,0,0)" stroke-width="1" opacity="0.3843137254901961" d="M 59.5 9 L 63 9.5 L 59.5 10 L 59.5 9 Z " /><path fill="rgb(0,0,0)" stroke="rgb(0,0,0)" stroke-width="1" opacity="0.3843137254901961" d="M 66.5 9 L 70 9.5 L 66.5 10 L 66.5 9 Z " /><path fill="rgb(0,0,0)" stroke="rgb(0,0,0)" stroke-width="1" opacity="0.3843137254901961" d="M 91.5 16 L 92.5 18 L 91.5 16 Z " /><path fill="rgb(0,0,0)" stroke="rgb(0,0,0)" stroke-width="1" opacity="0.3843137254901961" d="M 29.5 21 L 28.5 23 L 29.5 21 Z " /><path fill="rgb(0,0,0)" stroke="rgb(0,0,0)" stroke-width="1" opacity="0.3843137254901961" d="M 98.5 21 L 106.5 30 L 98.5 21 Z " /><path fill="rgb(0,0,0)" stroke="rgb(0,0,0)" stroke-width="1" opacity="0.3843137254901961" d="M 19.5 32 L 18.5 34 L 19.5 32 Z " /><path fill="rgb(0,0,0)" stroke="rgb(0,0,0)" stroke-width="1" opacity="0.3843137254901961" d="M 108.5 32 L 109.5 34 L 108.5 32 Z " /><path fill="rgb(0,0,0)" stroke="rgb(0,0,0)" stroke-width="1" opacity="0.3843137254901961" d="M 17.5 35 L 16.5 37 L 17.5 35 Z " /><path fill="rgb(0,0,0)" stroke="rgb(0,0,0)" stroke-width="1" opacity="0.3843137254901961" d="M 118.5 58 L 119 62.5 L 118 62.5 L 118.5 58 Z " /><path fill="rgb(0,0,0)" stroke="rgb(0,0,0)" stroke-width="1" opacity="0.3843137254901961" d="M 9.5 59 L 10 62.5 L 9 62.5 L 9.5 59 Z " /><path fill="rgb(0,0,0)" stroke="rgb(0,0,0)" stroke-width="1" opacity="0.3843137254901961" d="M 9.5 65 L 10 69.5 L 9 69.5 L 9.5 65 Z " /><path fill="rgb(0,0,0)" stroke="rgb(0,0,0)" stroke-width="1" opacity="0.3843137254901961" d="M 118.5 65 L 119 68.5 L 118 68.5 L 118.5 65 Z " /><path fill="rgb(0,0,0)" stroke="rgb(0,0,0)" stroke-width="1" opacity="0.3843137254901961" d="M 111.5 91 L 110.5 93 L 111.5 91 Z " /><path fill="rgb(0,0,0)" stroke="rgb(0,0,0)" stroke-width="1" opacity="0.3843137254901961" d="M 109.5 94 L 108.5 96 L 109.5 94 Z " /><path fill="rgb(0,0,0)" stroke="rgb(0,0,0)" stroke-width="1" opacity="0.3843137254901961" d="M 106.5 98 L 105.5 100 L 106.5 98 Z " /><path fill="rgb(0,0,0)" stroke="rgb(0,0,0)" stroke-width="1" opacity="0.3843137254901961" d="M 95.5 108 L 94.5 110 L 95.5 108 Z " /><path fill="rgb(0,0,0)" stroke="rgb(0,0,0)" stroke-width="1" opacity="0.3843137254901961" d="M 27.5 110 L 34 110.5 L 27.5 111 L 27.5 110 Z " /><path fill="rgb(0,0,0)" stroke="rgb(0,0,0)" stroke-width="1" opacity="0.3843137254901961" d="M 92.5 110 L 91.5 112 L 92.5 110 Z " /><path fill="rgb(0,0,0)" stroke="rgb(0,0,0)" stroke-width="1" opacity="0.3843137254901961" d="M 58.5 118 L 62 118.5 L 58.5 119 L 58.5 118 Z " /><path fill="rgb(0,0,0)" stroke="rgb(0,0,0)" stroke-width="1" opacity="0.3843137254901961" d="M 65.5 118 L 70 118.5 L 65.5 119 L 65.5 118 Z " /><path fill="rgb(0,0,0)" stroke="rgb(0,0,0)" stroke-width="1" opacity="0" d="M 0 0 L 128 0 L 128 128 L 0 128 L 0 0 Z M 60 9 L 46 12 L 30 21 L 16 37 L 11 49 L 9 60 L 9 70 L 13 86 L 13 95 L 10 104 L 10 109 L 12 112 L 15 113 Q 22 114 26 111 L 36 111 L 46 116 L 59 119 L 70 119 L 80 117 L 92 112 L 99 107 L 112 92 L 117 80 L 119 69 Q 119 43 107 30 Q 99 20 88 14 Q 77 8 60 9 Z " /><path fill="rgb(0,0,0)" stroke="rgb(0,0,0)" stroke-width="1" opacity="0.8745098039215686" d="M 93.5 18 L 94.5 20 L 93.5 18 Z " /><path fill="rgb(0,0,0)" stroke="rgb(0,0,0)" stroke-width="1" opacity="0.8745098039215686" d="M 96.5 20 L 97.5 22 L 96.5 20 Z " /><path fill="rgb(0,0,0)" stroke="rgb(0,0,0)" stroke-width="1" opacity="0.8745098039215686" d="M 108.5 33 L 109.5 35 L 108.5 33 Z " /><path fill="rgb(0,0,0)" stroke="rgb(0,0,0)" stroke-width="1" opacity="1" d="M 55.5 10 L 71.5 10 L 82.5 13 L 91.5 17 L 106 29.5 Q 112.8 37.2 116 48.5 L 118 56.5 L 118 72.5 Q 113.4 94.4 98.5 106 Q 89.7 113.7 76.5 117 L 71.5 118 L 55.5 118 Q 43.3 115.7 34.5 110 L 26.5 110 L 16.5 113 L 12 111 Q 10.3 108.6 11 102.5 L 13 98.5 L 14 86.5 L 10 72.5 L 10 56.5 Q 14.5 33 30.5 21 Q 40.3 12.8 55.5 10 Z " /><path fill="rgb(0,0,0)" stroke="rgb(0,0,0)" stroke-width="1" opacity="0.6784313725490196" d="M 63.5 9 L 66 9.5 L 63.5 10 L 63.5 9 Z " /><path fill="rgb(0,0,0)" stroke="rgb(0,0,0)" stroke-width="1" opacity="0.6784313725490196" d="M 27.5 23 L 22.5 29 L 27.5 23 Z " /><path fill="rgb(0,0,0)" stroke="rgb(0,0,0)" stroke-width="1" opacity="0.6784313725490196" d="M 13.5 87 L 14 91.5 L 13 91.5 L 13.5 87 Z " /><path fill="rgb(0,0,0)" stroke="rgb(0,0,0)" stroke-width="1" opacity="0.6784313725490196" d="M 104.5 100 L 99.5 106 L 104.5 100 Z " /><path fill="rgb(0,0,0)" stroke="rgb(0,0,0)" stroke-width="1" opacity="0.6784313725490196" d="M 10.5 105 L 11 107.5 L 10 107.5 L 10.5 105 Z " /><path fill="rgb(0,0,0)" stroke="rgb(0,0,0)" stroke-width="1" opacity="0.6784313725490196" d="M 62.5 118 L 65 118.5 L 62.5 119 L 62.5 118 Z " /></svg>