<svg width="512" height="512" version="1.1" xmlns="http://www.w3.org/2000/svg" desc="Created with imagetracer.js version 1.2.6" ><path fill="rgb(0,0,0)" stroke="rgb(0,0,0)" stroke-width="1" opacity="0" d="M 0 0 L 512 0 L 512 512 L 0 512 L 0 0 Z M 139 48 L 107 54 L 87 62 Q 67 71 53 85 Q 29 106 16 137 L 8 163 L 7 174 L 6 175 L 6 185 L 5 186 L 5 201 L 6 202 L 7 223 L 11 242 L 16 257 L 32 287 L 61 322 Q 98 358 141 388 Q 195 428 253 464 Q 261 465 265 462 L 361 396 Q 408 363 449 324 Q 475 298 493 264 L 503 234 L 505 216 L 506 215 L 506 202 L 507 201 L 507 186 L 506 185 L 505 168 L 498 142 Q 487 114 469 95 Q 450 74 424 61 L 402 53 L 374 48 L 346 49 L 330 53 L 315 59 Q 280 76 257 103 Q 232 76 198 59 L 183 53 L 167 49 L 139 48 Z " /><path fill="rgb(0,0,0)" stroke="rgb(0,0,0)" stroke-width="1" opacity="0" d="M 139.5 80 L 163.5 81 Q 180.5 85 193.5 93 Q 217.7 107.8 236 128.5 L 247.5 142 Q 251.5 145 259.5 144 Q 266.7 142.2 270 136.5 Q 278.9 122.9 291.5 113 Q 310.1 95.6 335.5 85 L 355.5 80 L 372.5 80 L 393.5 84 L 417.5 94 Q 436.5 105 450 121.5 Q 463 137 470 158.5 L 474 176.5 L 475 199.5 L 474 200.5 L 474 212.5 L 473 213.5 L 472 225.5 L 465 247.5 L 451 272.5 L 424.5 303 Q 390.4 335.4 351.5 363 L 287.5 408 L 257.5 428 L 254.5 428 Q 195.9 389.6 140.5 348 Q 109.9 325.1 83 298.5 Q 60.7 277.3 47 247.5 L 42 233.5 L 39 219.5 L 38 200.5 L 37 199.5 L 37 186.5 L 38 185.5 L 39 170.5 L 42 158.5 L 50 139.5 Q 61.1 119.1 78.5 105 Q 90 95.5 104.5 89 L 118.5 84 L 139.5 80 Z " /><path fill="rgb(0,0,0)" stroke="rgb(0,0,0)" stroke-width="1" opacity="0.9882352941176471" d="M 138.5 48 L 166.5 49 L 182.5 53 L 197.5 59 Q 231.8 76.2 256.5 103 Q 280.5 76 314.5 59 L 329.5 53 L 345.5 49 L 373.5 48 L 401.5 53 L 423.5 61 Q 450.2 73.8 469 94.5 Q 487.3 114.2 498 141.5 L 505 167.5 L 506 184.5 L 507 185.5 L 507 200.5 L 506 201.5 L 506 214.5 L 505 215.5 L 503 233.5 L 493 263.5 Q 475.5 298.5 448.5 324 Q 407.8 363.3 360.5 396 L 264.5 462 Q 260.5 465 252.5 464 Q 194.6 427.9 140.5 388 Q 97.8 357.7 61 321.5 L 32 286.5 L 16 256.5 L 11 241.5 L 7 222.5 L 6 201.5 L 5 200.5 L 5 185.5 L 6 184.5 L 6 174.5 L 7 173.5 L 8 162.5 L 16 136.5 Q 29.4 105.9 52.5 85 Q 67.5 71.5 86.5 62 L 106.5 54 L 138.5 48 Z M 140 80 L 119 84 L 105 89 Q 90 95 79 105 Q 61 119 50 140 L 42 159 L 39 171 L 38 186 L 37 187 L 37 200 L 38 201 L 39 220 L 42 234 L 47 248 Q 61 277 83 299 Q 110 325 141 348 Q 196 390 255 428 L 258 428 L 288 408 L 352 363 Q 390 335 425 303 L 451 273 L 465 248 L 472 226 L 473 214 L 474 213 L 474 201 L 475 200 L 474 177 L 470 159 Q 463 137 450 122 Q 437 105 418 94 L 394 84 L 373 80 L 356 80 L 336 85 Q 310 96 292 113 Q 279 123 270 137 Q 267 142 260 144 Q 252 145 248 142 L 236 129 Q 218 108 194 93 Q 181 85 164 81 L 140 80 Z " /></svg>