<svg width="512" height="512" version="1.1" xmlns="http://www.w3.org/2000/svg" desc="Created with imagetracer.js version 1.2.6" ><path fill="rgb(0,0,0)" stroke="rgb(0,0,0)" stroke-width="1" opacity="0" d="M 0 0 L 383.5 0 L 384 0.5 L 384 64 L 320 64 L 320 96 L 384 96 L 384 160 L 416 160 L 416 96 L 480 96 L 480 64 L 416 64 L 416 0 L 511.5 0 L 512 0.5 L 512 512 L 0 512 L 0 0 Z M 243 32 L 242 33 L 231 33 L 223 35 L 217 35 L 203 38 L 170 49 Q 135 64 109 87 Q 73 118 52 163 Q 43 181 38 203 L 35 217 L 34 230 L 33 231 L 33 242 L 32 243 L 32 270 L 33 271 L 33 282 L 35 290 L 35 296 L 45 333 Q 60 374 87 404 Q 118 439 163 460 L 180 467 L 203 474 L 224 478 L 242 479 L 243 480 L 270 480 L 271 479 L 282 479 L 290 477 L 296 477 L 333 467 Q 374 452 404 425 Q 439 394 460 350 Q 469 331 474 310 L 477 296 L 478 283 L 479 282 L 479 271 L 480 270 L 480 245 L 479 244 L 478 226 L 477 224 L 445 224 L 446 227 L 447 245 L 448 246 L 448 267 L 447 268 L 446 286 L 441 309 L 436 324 Q 422 360 398 386 Q 372 415 334 432 L 302 443 L 280 447 L 271 447 L 270 448 L 243 448 L 242 447 L 233 447 L 232 446 L 215 444 L 191 437 Q 155 424 130 401 Q 103 378 86 347 Q 77 330 71 310 L 67 294 L 66 283 L 65 282 L 65 274 L 64 273 L 64 240 L 65 239 L 65 231 L 67 224 L 67 219 L 71 203 Q 84 160 110 131 Q 135 101 172 83 Q 191 73 215 68 L 232 66 L 233 65 L 256 64 L 256 32 L 243 32 Z M 179 176 Q 167 178 160 184 Q 148 193 144 211 L 145 227 L 152 241 Q 161 252 179 256 L 195 255 L 209 248 Q 220 239 224 222 Q 225 201 216 192 Q 210 184 201 179 L 190 176 L 179 176 Z M 323 176 Q 311 178 304 184 Q 292 193 288 211 L 289 227 L 296 241 Q 305 252 323 256 L 339 255 L 353 248 Q 364 239 368 222 Q 369 201 360 192 Q 354 184 345 179 L 334 176 L 323 176 Z M 145 320 L 156 338 Q 170 354 190 366 Q 204 375 223 380 L 238 383 L 246 383 L 247 384 L 266 384 L 267 383 L 275 383 L 290 380 Q 319 371 340 354 Q 356 340 368 321 L 145 320 Z " /><path fill="rgb(0,0,0)" stroke="rgb(0,0,0)" stroke-width="1" opacity="0.9568627450980393" d="M 242.5 32 L 250 32.5 L 242.5 33 L 242.5 32 Z " /><path fill="rgb(0,0,0)" stroke="rgb(0,0,0)" stroke-width="1" opacity="0.9568627450980393" d="M 230.5 33 L 234 33.5 L 230.5 34 L 230.5 33 Z " /><path fill="rgb(0,0,0)" stroke="rgb(0,0,0)" stroke-width="1" opacity="0.9568627450980393" d="M 216.5 35 L 219 35.5 L 216.5 36 L 216.5 35 Z " /><path fill="rgb(0,0,0)" stroke="rgb(0,0,0)" stroke-width="1" opacity="0.9568627450980393" d="M 237.5 64 L 242 64.5 L 237.5 65 L 237.5 64 Z " /><path fill="rgb(0,0,0)" stroke="rgb(0,0,0)" stroke-width="1" opacity="0.9568627450980393" d="M 229.5 65 L 232 65.5 L 229.5 66 L 229.5 65 Z " /><path fill="rgb(0,0,0)" stroke="rgb(0,0,0)" stroke-width="1" opacity="0.9568627450980393" d="M 222.5 66 L 225 66.5 L 222.5 67 L 222.5 66 Z " /><path fill="rgb(0,0,0)" stroke="rgb(0,0,0)" stroke-width="1" opacity="0.9568627450980393" d="M 133.5 68 L 132.5 70 L 133.5 68 Z " /><path fill="rgb(0,0,0)" stroke="rgb(0,0,0)" stroke-width="1" opacity="0.9568627450980393" d="M 130.5 70 L 129.5 72 L 130.5 70 Z " /><path fill="rgb(0,0,0)" stroke="rgb(0,0,0)" stroke-width="1" opacity="0.9568627450980393" d="M 123.5 75 L 122.5 77 L 123.5 75 Z " /><path fill="rgb(0,0,0)" stroke="rgb(0,0,0)" stroke-width="1" opacity="0.9568627450980393" d="M 119.5 78 L 118.5 80 L 119.5 78 Z " /><path fill="rgb(0,0,0)" stroke="rgb(0,0,0)" stroke-width="1" opacity="0.9568627450980393" d="M 114.5 82 L 113.5 84 L 114.5 82 Z " /><path fill="rgb(0,0,0)" stroke="rgb(0,0,0)" stroke-width="1" opacity="0.9568627450980393" d="M 108.5 87 L 105.5 91 L 108.5 87 Z " /><path fill="rgb(0,0,0)" stroke="rgb(0,0,0)" stroke-width="1" opacity="0.9568627450980393" d="M 154.5 92 L 153.5 94 L 154.5 92 Z " /><path fill="rgb(0,0,0)" stroke="rgb(0,0,0)" stroke-width="1" opacity="0.9568627450980393" d="M 145.5 98 L 144.5 100 L 145.5 98 Z " /><path fill="rgb(0,0,0)" stroke="rgb(0,0,0)" stroke-width="1" opacity="0.9568627450980393" d="M 137.5 104 L 136.5 106 L 137.5 104 Z " /><path fill="rgb(0,0,0)" stroke="rgb(0,0,0)" stroke-width="1" opacity="0.9568627450980393" d="M 90.5 105 L 87.5 109 L 90.5 105 Z " /><path fill="rgb(0,0,0)" stroke="rgb(0,0,0)" stroke-width="1" opacity="0.9568627450980393" d="M 132.5 108 L 130.5 111 L 132.5 108 Z " /><path fill="rgb(0,0,0)" stroke="rgb(0,0,0)" stroke-width="1" opacity="0.9568627450980393" d="M 83.5 113 L 82.5 115 L 83.5 113 Z " /><path fill="rgb(0,0,0)" stroke="rgb(0,0,0)" stroke-width="1" opacity="0.9568627450980393" d="M 124.5 115 L 115.5 125 L 124.5 115 Z " /><path fill="rgb(0,0,0)" stroke="rgb(0,0,0)" stroke-width="1" opacity="0.9568627450980393" d="M 79.5 118 L 78.5 120 L 79.5 118 Z " /><path fill="rgb(0,0,0)" stroke="rgb(0,0,0)" stroke-width="1" opacity="0.9568627450980393" d="M 76.5 122 L 75.5 124 L 76.5 122 Z " /><path fill="rgb(0,0,0)" stroke="rgb(0,0,0)" stroke-width="1" opacity="0.9568627450980393" d="M 71.5 129 L 70.5 131 L 71.5 129 Z " /><path fill="rgb(0,0,0)" stroke="rgb(0,0,0)" stroke-width="1" opacity="0.9568627450980393" d="M 109.5 131 L 108.5 133 L 109.5 131 Z " /><path fill="rgb(0,0,0)" stroke="rgb(0,0,0)" stroke-width="1" opacity="0.9568627450980393" d="M 69.5 132 L 68.5 134 L 69.5 132 Z " /><path fill="rgb(0,0,0)" stroke="rgb(0,0,0)" stroke-width="1" opacity="0.9568627450980393" d="M 178.5 176 L 181 176.5 L 178.5 177 L 178.5 176 Z " /><path fill="rgb(0,0,0)" stroke="rgb(0,0,0)" stroke-width="1" opacity="0.9568627450980393" d="M 187.5 176 L 190 176.5 L 187.5 177 L 187.5 176 Z " /><path fill="rgb(0,0,0)" stroke="rgb(0,0,0)" stroke-width="1" opacity="0.9568627450980393" d="M 322.5 176 L 325 176.5 L 322.5 177 L 322.5 176 Z " /><path fill="rgb(0,0,0)" stroke="rgb(0,0,0)" stroke-width="1" opacity="0.9568627450980393" d="M 331.5 176 L 334 176.5 L 331.5 177 L 331.5 176 Z " /><path fill="rgb(0,0,0)" stroke="rgb(0,0,0)" stroke-width="1" opacity="0.9568627450980393" d="M 159.5 184 L 158.5 186 L 159.5 184 Z " /><path fill="rgb(0,0,0)" stroke="rgb(0,0,0)" stroke-width="1" opacity="0.9568627450980393" d="M 303.5 184 L 302.5 186 L 303.5 184 Z " /><path fill="rgb(0,0,0)" stroke="rgb(0,0,0)" stroke-width="1" opacity="0.9568627450980393" d="M 153.5 190 L 152.5 192 L 153.5 190 Z " /><path fill="rgb(0,0,0)" stroke="rgb(0,0,0)" stroke-width="1" opacity="0.9568627450980393" d="M 297.5 190 L 296.5 192 L 297.5 190 Z " /><path fill="rgb(0,0,0)" stroke="rgb(0,0,0)" stroke-width="1" opacity="0.9568627450980393" d="M 144.5 210 L 145 212.5 L 144 212.5 L 144.5 210 Z " /><path fill="rgb(0,0,0)" stroke="rgb(0,0,0)" stroke-width="1" opacity="0.9568627450980393" d="M 223.5 210 L 224 212.5 L 223 212.5 L 223.5 210 Z " /><path fill="rgb(0,0,0)" stroke="rgb(0,0,0)" stroke-width="1" opacity="0.9568627450980393" d="M 288.5 210 L 289 212.5 L 288 212.5 L 288.5 210 Z " /><path fill="rgb(0,0,0)" stroke="rgb(0,0,0)" stroke-width="1" opacity="0.9568627450980393" d="M 367.5 210 L 368 212.5 L 367 212.5 L 367.5 210 Z " /><path fill="rgb(0,0,0)" stroke="rgb(0,0,0)" stroke-width="1" opacity="0.9568627450980393" d="M 35.5 216 L 36 218.5 L 35 218.5 L 35.5 216 Z " /><path fill="rgb(0,0,0)" stroke="rgb(0,0,0)" stroke-width="1" opacity="0.9568627450980393" d="M 144.5 219 L 145 221.5 L 144 221.5 L 144.5 219 Z " /><path fill="rgb(0,0,0)" stroke="rgb(0,0,0)" stroke-width="1" opacity="0.9568627450980393" d="M 223.5 219 L 224 221.5 L 223 221.5 L 223.5 219 Z " /><path fill="rgb(0,0,0)" stroke="rgb(0,0,0)" stroke-width="1" opacity="0.9568627450980393" d="M 288.5 219 L 289 221.5 L 288 221.5 L 288.5 219 Z " /><path fill="rgb(0,0,0)" stroke="rgb(0,0,0)" stroke-width="1" opacity="0.9568627450980393" d="M 367.5 219 L 368 221.5 L 367 221.5 L 367.5 219 Z " /><path fill="rgb(0,0,0)" stroke="rgb(0,0,0)" stroke-width="1" opacity="0.9568627450980393" d="M 33.5 230 L 34 233.5 L 33 233.5 L 33.5 230 Z " /><path fill="rgb(0,0,0)" stroke="rgb(0,0,0)" stroke-width="1" opacity="0.9568627450980393" d="M 446.5 231 L 447 233.5 L 446 233.5 L 446.5 231 Z " /><path fill="rgb(0,0,0)" stroke="rgb(0,0,0)" stroke-width="1" opacity="0.9568627450980393" d="M 478.5 232 L 479 235.5 L 478 235.5 L 478.5 232 Z " /><path fill="rgb(0,0,0)" stroke="rgb(0,0,0)" stroke-width="1" opacity="0.9568627450980393" d="M 64.5 235 L 65 238.5 L 64 238.5 L 64.5 235 Z " /><path fill="rgb(0,0,0)" stroke="rgb(0,0,0)" stroke-width="1" opacity="0.9568627450980393" d="M 447.5 239 L 448 244.5 L 447 244.5 L 447.5 239 Z " /><path fill="rgb(0,0,0)" stroke="rgb(0,0,0)" stroke-width="1" opacity="0.9568627450980393" d="M 152.5 240 L 153.5 242 L 152.5 240 Z " /><path fill="rgb(0,0,0)" stroke="rgb(0,0,0)" stroke-width="1" opacity="0.9568627450980393" d="M 215.5 240 L 214.5 242 L 215.5 240 Z " /><path fill="rgb(0,0,0)" stroke="rgb(0,0,0)" stroke-width="1" opacity="0.9568627450980393" d="M 296.5 240 L 297.5 242 L 296.5 240 Z " /><path fill="rgb(0,0,0)" stroke="rgb(0,0,0)" stroke-width="1" opacity="0.9568627450980393" d="M 359.5 240 L 358.5 242 L 359.5 240 Z " /><path fill="rgb(0,0,0)" stroke="rgb(0,0,0)" stroke-width="1" opacity="0.9568627450980393" d="M 32.5 242 L 33 249.5 L 32 249.5 L 32.5 242 Z " /><path fill="rgb(0,0,0)" stroke="rgb(0,0,0)" stroke-width="1" opacity="0.9568627450980393" d="M 479.5 244 L 480 251.5 L 479 251.5 L 479.5 244 Z " /><path fill="rgb(0,0,0)" stroke="rgb(0,0,0)" stroke-width="1" opacity="0.9568627450980393" d="M 158.5 246 L 159.5 248 L 158.5 246 Z " /><path fill="rgb(0,0,0)" stroke="rgb(0,0,0)" stroke-width="1" opacity="0.9568627450980393" d="M 209.5 246 L 208.5 248 L 209.5 246 Z " /><path fill="rgb(0,0,0)" stroke="rgb(0,0,0)" stroke-width="1" opacity="0.9568627450980393" d="M 302.5 246 L 303.5 248 L 302.5 246 Z " /><path fill="rgb(0,0,0)" stroke="rgb(0,0,0)" stroke-width="1" opacity="0.9568627450980393" d="M 353.5 246 L 352.5 248 L 353.5 246 Z " /><path fill="rgb(0,0,0)" stroke="rgb(0,0,0)" stroke-width="1" opacity="0.9568627450980393" d="M 63.5 250 L 64 261.5 L 63 261.5 L 63.5 250 Z " /><path fill="rgb(0,0,0)" stroke="rgb(0,0,0)" stroke-width="1" opacity="0.9568627450980393" d="M 178.5 255 L 181 255.5 L 178.5 256 L 178.5 255 Z " /><path fill="rgb(0,0,0)" stroke="rgb(0,0,0)" stroke-width="1" opacity="0.9568627450980393" d="M 187.5 255 L 190 255.5 L 187.5 256 L 187.5 255 Z " /><path fill="rgb(0,0,0)" stroke="rgb(0,0,0)" stroke-width="1" opacity="0.9568627450980393" d="M 322.5 255 L 325 255.5 L 322.5 256 L 322.5 255 Z " /><path fill="rgb(0,0,0)" stroke="rgb(0,0,0)" stroke-width="1" opacity="0.9568627450980393" d="M 331.5 255 L 334 255.5 L 331.5 256 L 331.5 255 Z " /><path fill="rgb(0,0,0)" stroke="rgb(0,0,0)" stroke-width="1" opacity="0.9568627450980393" d="M 32.5 262 L 33 269.5 L 32 269.5 L 32.5 262 Z " /><path fill="rgb(0,0,0)" stroke="rgb(0,0,0)" stroke-width="1" opacity="0.9568627450980393" d="M 479.5 262 L 480 269.5 L 479 269.5 L 479.5 262 Z " /><path fill="rgb(0,0,0)" stroke="rgb(0,0,0)" stroke-width="1" opacity="0.9568627450980393" d="M 447.5 267 L 448 272.5 L 447 272.5 L 447.5 267 Z " /><path fill="rgb(0,0,0)" stroke="rgb(0,0,0)" stroke-width="1" opacity="0.9568627450980393" d="M 64.5 273 L 65 276.5 L 64 276.5 L 64.5 273 Z " /><path fill="rgb(0,0,0)" stroke="rgb(0,0,0)" stroke-width="1" opacity="0.9568627450980393" d="M 33.5 278 L 34 281.5 L 33 281.5 L 33.5 278 Z " /><path fill="rgb(0,0,0)" stroke="rgb(0,0,0)" stroke-width="1" opacity="0.9568627450980393" d="M 478.5 278 L 479 281.5 L 478 281.5 L 478.5 278 Z " /><path fill="rgb(0,0,0)" stroke="rgb(0,0,0)" stroke-width="1" opacity="0.9568627450980393" d="M 446.5 279 L 447 281.5 L 446 281.5 L 446.5 279 Z " /><path fill="rgb(0,0,0)" stroke="rgb(0,0,0)" stroke-width="1" opacity="0.9568627450980393" d="M 35.5 293 L 36 295.5 L 35 295.5 L 35.5 293 Z " /><path fill="rgb(0,0,0)" stroke="rgb(0,0,0)" stroke-width="1" opacity="0.9568627450980393" d="M 476.5 293 L 477 295.5 L 476 295.5 L 476.5 293 Z " /><path fill="rgb(0,0,0)" stroke="rgb(0,0,0)" stroke-width="1" opacity="0.9568627450980393" d="M 147.5 325 L 148.5 327 L 147.5 325 Z " /><path fill="rgb(0,0,0)" stroke="rgb(0,0,0)" stroke-width="1" opacity="0.9568627450980393" d="M 364.5 325 L 363.5 327 L 364.5 325 Z " /><path fill="rgb(0,0,0)" stroke="rgb(0,0,0)" stroke-width="1" opacity="0.9568627450980393" d="M 152.5 332 L 153.5 334 L 152.5 332 Z " /><path fill="rgb(0,0,0)" stroke="rgb(0,0,0)" stroke-width="1" opacity="0.9568627450980393" d="M 359.5 332 L 358.5 334 L 359.5 332 Z " /><path fill="rgb(0,0,0)" stroke="rgb(0,0,0)" stroke-width="1" opacity="0.9568627450980393" d="M 156.5 337 L 158.5 340 L 156.5 337 Z " /><path fill="rgb(0,0,0)" stroke="rgb(0,0,0)" stroke-width="1" opacity="0.9568627450980393" d="M 355.5 337 L 353.5 340 L 355.5 337 Z " /><path fill="rgb(0,0,0)" stroke="rgb(0,0,0)" stroke-width="1" opacity="0.9568627450980393" d="M 170.5 351 L 172.5 354 L 170.5 351 Z " /><path fill="rgb(0,0,0)" stroke="rgb(0,0,0)" stroke-width="1" opacity="0.9568627450980393" d="M 341.5 351 L 339.5 354 L 341.5 351 Z " /><path fill="rgb(0,0,0)" stroke="rgb(0,0,0)" stroke-width="1" opacity="0.9568627450980393" d="M 176.5 356 L 177.5 358 L 176.5 356 Z " /><path fill="rgb(0,0,0)" stroke="rgb(0,0,0)" stroke-width="1" opacity="0.9568627450980393" d="M 335.5 356 L 334.5 358 L 335.5 356 Z " /><path fill="rgb(0,0,0)" stroke="rgb(0,0,0)" stroke-width="1" opacity="0.9568627450980393" d="M 412.5 367 L 411.5 369 L 412.5 367 Z " /><path fill="rgb(0,0,0)" stroke="rgb(0,0,0)" stroke-width="1" opacity="0.9568627450980393" d="M 409.5 371 L 408.5 373 L 409.5 371 Z " /><path fill="rgb(0,0,0)" stroke="rgb(0,0,0)" stroke-width="1" opacity="0.9568627450980393" d="M 406.5 375 L 405.5 377 L 406.5 375 Z " /><path fill="rgb(0,0,0)" stroke="rgb(0,0,0)" stroke-width="1" opacity="0.9568627450980393" d="M 68.5 378 L 69.5 380 L 68.5 378 Z " /><path fill="rgb(0,0,0)" stroke="rgb(0,0,0)" stroke-width="1" opacity="0.9568627450980393" d="M 443.5 378 L 442.5 380 L 443.5 378 Z " /><path fill="rgb(0,0,0)" stroke="rgb(0,0,0)" stroke-width="1" opacity="0.9568627450980393" d="M 108.5 379 L 109.5 381 L 108.5 379 Z " /><path fill="rgb(0,0,0)" stroke="rgb(0,0,0)" stroke-width="1" opacity="0.9568627450980393" d="M 70.5 381 L 71.5 383 L 70.5 381 Z " /><path fill="rgb(0,0,0)" stroke="rgb(0,0,0)" stroke-width="1" opacity="0.9568627450980393" d="M 401.5 381 L 398.5 385 L 401.5 381 Z " /><path fill="rgb(0,0,0)" stroke="rgb(0,0,0)" stroke-width="1" opacity="0.9568627450980393" d="M 441.5 381 L 440.5 383 L 441.5 381 Z " /><path fill="rgb(0,0,0)" stroke="rgb(0,0,0)" stroke-width="1" opacity="0.9568627450980393" d="M 237.5 382 L 240 382.5 L 237.5 383 L 237.5 382 Z " /><path fill="rgb(0,0,0)" stroke="rgb(0,0,0)" stroke-width="1" opacity="0.9568627450980393" d="M 272.5 382 L 275 382.5 L 272.5 383 L 272.5 382 Z " /><path fill="rgb(0,0,0)" stroke="rgb(0,0,0)" stroke-width="1" opacity="0.9568627450980393" d="M 246.5 383 L 255 383.5 L 246.5 384 L 246.5 383 Z " /><path fill="rgb(0,0,0)" stroke="rgb(0,0,0)" stroke-width="1" opacity="0.9568627450980393" d="M 257.5 383 L 266 383.5 L 257.5 384 L 257.5 383 Z " /><path fill="rgb(0,0,0)" stroke="rgb(0,0,0)" stroke-width="1" opacity="0.9568627450980393" d="M 115.5 387 L 124.5 397 L 115.5 387 Z " /><path fill="rgb(0,0,0)" stroke="rgb(0,0,0)" stroke-width="1" opacity="0.9568627450980393" d="M 75.5 388 L 76.5 390 L 75.5 388 Z " /><path fill="rgb(0,0,0)" stroke="rgb(0,0,0)" stroke-width="1" opacity="0.9568627450980393" d="M 436.5 388 L 435.5 390 L 436.5 388 Z " /><path fill="rgb(0,0,0)" stroke="rgb(0,0,0)" stroke-width="1" opacity="0.9568627450980393" d="M 78.5 392 L 79.5 394 L 78.5 392 Z " /><path fill="rgb(0,0,0)" stroke="rgb(0,0,0)" stroke-width="1" opacity="0.9568627450980393" d="M 433.5 392 L 432.5 394 L 433.5 392 Z " /><path fill="rgb(0,0,0)" stroke="rgb(0,0,0)" stroke-width="1" opacity="0.9568627450980393" d="M 82.5 397 L 83.5 399 L 82.5 397 Z " /><path fill="rgb(0,0,0)" stroke="rgb(0,0,0)" stroke-width="1" opacity="0.9568627450980393" d="M 429.5 397 L 428.5 399 L 429.5 397 Z " /><path fill="rgb(0,0,0)" stroke="rgb(0,0,0)" stroke-width="1" opacity="0.9568627450980393" d="M 383.5 399 L 381.5 402 L 383.5 399 Z " /><path fill="rgb(0,0,0)" stroke="rgb(0,0,0)" stroke-width="1" opacity="0.9568627450980393" d="M 130.5 401 L 132.5 404 L 130.5 401 Z " /><path fill="rgb(0,0,0)" stroke="rgb(0,0,0)" stroke-width="1" opacity="0.9568627450980393" d="M 87.5 403 L 90.5 407 L 87.5 403 Z " /><path fill="rgb(0,0,0)" stroke="rgb(0,0,0)" stroke-width="1" opacity="0.9568627450980393" d="M 424.5 403 L 421.5 407 L 424.5 403 Z " /><path fill="rgb(0,0,0)" stroke="rgb(0,0,0)" stroke-width="1" opacity="0.9568627450980393" d="M 376.5 405 L 375.5 407 L 376.5 405 Z " /><path fill="rgb(0,0,0)" stroke="rgb(0,0,0)" stroke-width="1" opacity="0.9568627450980393" d="M 136.5 406 L 137.5 408 L 136.5 406 Z " /><path fill="rgb(0,0,0)" stroke="rgb(0,0,0)" stroke-width="1" opacity="0.9568627450980393" d="M 372.5 408 L 371.5 410 L 372.5 408 Z " /><path fill="rgb(0,0,0)" stroke="rgb(0,0,0)" stroke-width="1" opacity="0.9568627450980393" d="M 368.5 411 L 367.5 413 L 368.5 411 Z " /><path fill="rgb(0,0,0)" stroke="rgb(0,0,0)" stroke-width="1" opacity="0.9568627450980393" d="M 144.5 412 L 145.5 414 L 144.5 412 Z " /><path fill="rgb(0,0,0)" stroke="rgb(0,0,0)" stroke-width="1" opacity="0.9568627450980393" d="M 105.5 421 L 108.5 425 L 105.5 421 Z " /><path fill="rgb(0,0,0)" stroke="rgb(0,0,0)" stroke-width="1" opacity="0.9568627450980393" d="M 406.5 421 L 403.5 425 L 406.5 421 Z " /><path fill="rgb(0,0,0)" stroke="rgb(0,0,0)" stroke-width="1" opacity="0.9568627450980393" d="M 113.5 428 L 114.5 430 L 113.5 428 Z " /><path fill="rgb(0,0,0)" stroke="rgb(0,0,0)" stroke-width="1" opacity="0.9568627450980393" d="M 398.5 428 L 397.5 430 L 398.5 428 Z " /><path fill="rgb(0,0,0)" stroke="rgb(0,0,0)" stroke-width="1" opacity="0.9568627450980393" d="M 118.5 432 L 119.5 434 L 118.5 432 Z " /><path fill="rgb(0,0,0)" stroke="rgb(0,0,0)" stroke-width="1" opacity="0.9568627450980393" d="M 393.5 432 L 392.5 434 L 393.5 432 Z " /><path fill="rgb(0,0,0)" stroke="rgb(0,0,0)" stroke-width="1" opacity="0.9568627450980393" d="M 122.5 435 L 123.5 437 L 122.5 435 Z " /><path fill="rgb(0,0,0)" stroke="rgb(0,0,0)" stroke-width="1" opacity="0.9568627450980393" d="M 389.5 435 L 388.5 437 L 389.5 435 Z " /><path fill="rgb(0,0,0)" stroke="rgb(0,0,0)" stroke-width="1" opacity="0.9568627450980393" d="M 129.5 440 L 130.5 442 L 129.5 440 Z " /><path fill="rgb(0,0,0)" stroke="rgb(0,0,0)" stroke-width="1" opacity="0.9568627450980393" d="M 382.5 440 L 381.5 442 L 382.5 440 Z " /><path fill="rgb(0,0,0)" stroke="rgb(0,0,0)" stroke-width="1" opacity="0.9568627450980393" d="M 132.5 442 L 133.5 444 L 132.5 442 Z " /><path fill="rgb(0,0,0)" stroke="rgb(0,0,0)" stroke-width="1" opacity="0.9568627450980393" d="M 379.5 442 L 378.5 444 L 379.5 442 Z " /><path fill="rgb(0,0,0)" stroke="rgb(0,0,0)" stroke-width="1" opacity="0.9568627450980393" d="M 229.5 446 L 232 446.5 L 229.5 447 L 229.5 446 Z " /><path fill="rgb(0,0,0)" stroke="rgb(0,0,0)" stroke-width="1" opacity="0.9568627450980393" d="M 280.5 446 L 283 446.5 L 280.5 447 L 280.5 446 Z " /><path fill="rgb(0,0,0)" stroke="rgb(0,0,0)" stroke-width="1" opacity="0.9568627450980393" d="M 237.5 447 L 242 447.5 L 237.5 448 L 237.5 447 Z " /><path fill="rgb(0,0,0)" stroke="rgb(0,0,0)" stroke-width="1" opacity="0.9568627450980393" d="M 270.5 447 L 274 447.5 L 270.5 448 L 270.5 447 Z " /><path fill="rgb(0,0,0)" stroke="rgb(0,0,0)" stroke-width="1" opacity="0.9568627450980393" d="M 293.5 476 L 296 476.5 L 293.5 477 L 293.5 476 Z " /><path fill="rgb(0,0,0)" stroke="rgb(0,0,0)" stroke-width="1" opacity="0.9568627450980393" d="M 230.5 478 L 234 478.5 L 230.5 479 L 230.5 478 Z " /><path fill="rgb(0,0,0)" stroke="rgb(0,0,0)" stroke-width="1" opacity="0.9568627450980393" d="M 278.5 478 L 282 478.5 L 278.5 479 L 278.5 478 Z " /><path fill="rgb(0,0,0)" stroke="rgb(0,0,0)" stroke-width="1" opacity="0.9568627450980393" d="M 242.5 479 L 250 479.5 L 242.5 480 L 242.5 479 Z " /><path fill="rgb(0,0,0)" stroke="rgb(0,0,0)" stroke-width="1" opacity="0.9568627450980393" d="M 262.5 479 L 270 479.5 L 262.5 480 L 262.5 479 Z " /><path fill="rgb(0,0,0)" stroke="rgb(0,0,0)" stroke-width="1" opacity="1" d="M 384 0 L 416 0 L 416 64 L 480 64 L 480 96 L 416 96 L 416 160 L 384 160 L 384 96 L 320 96 L 320 64 L 384 64 L 384 0 Z " /><path fill="rgb(0,0,0)" stroke="rgb(0,0,0)" stroke-width="1" opacity="1" d="M 250.5 32 Q 255.9 31.4 256 32.5 L 256 64 L 237.5 64 L 236.5 65 L 222.5 66 L 201.5 71 L 179.5 79 Q 141.4 95.9 115 124.5 Q 90.4 150.4 76 186.5 L 70 204.5 L 66 222.5 L 65 234.5 L 64 235.5 L 63 261.5 L 64 262.5 L 64 276.5 L 68 299.5 L 78 330.5 Q 95.2 369.8 124.5 397 Q 151.3 422.7 189.5 437 L 201.5 441 L 229.5 447 Q 235.8 445.3 237.5 448 L 273.5 448 L 274.5 447 L 288.5 446 L 313.5 440 L 348.5 425 Q 379.6 407.6 402 381.5 Q 428.1 352.1 441 309.5 L 445 293.5 L 445 288.5 L 447 281.5 L 447 273.5 L 448 272.5 L 448 239.5 L 447 238.5 L 446 224 L 476.5 224 L 477 226.5 L 479 236.5 L 480 261.5 L 479 262.5 L 478 286.5 L 475 303.5 Q 469.8 326.8 461 346.5 Q 440.9 390.4 407.5 421 Q 378.8 447.8 339.5 464 Q 320.6 471.6 298.5 476 L 293.5 476 L 286.5 478 L 278.5 478 L 277.5 479 L 250.5 480 L 249.5 479 L 225.5 478 L 208.5 475 Q 185.2 469.8 165.5 461 Q 121.6 440.9 91 407.5 Q 64.2 378.8 48 339.5 Q 40.4 320.6 36 298.5 L 36 293.5 L 34 286.5 L 34 278.5 L 33 277.5 L 32 250.5 L 33 249.5 L 34 225.5 L 37 208.5 Q 42.2 185.2 51 165.5 Q 71.1 121.6 104.5 91 Q 130.6 66.6 165.5 51 Q 185.2 42.2 208.5 37 L 225.5 34 L 249.5 33 L 250.5 32 Z " /><path fill="rgb(0,0,0)" stroke="rgb(0,0,0)" stroke-width="1" opacity="1" d="M 181.5 176 L 193.5 177 L 199.5 179 Q 208.9 183.1 215 190.5 L 223 206.5 L 224 218.5 L 220 233.5 L 210.5 246 L 196.5 254 L 181.5 256 L 166.5 252 L 154 242.5 L 146 228.5 L 144 213.5 L 148 198.5 L 157.5 186 L 166.5 180 L 181.5 176 Z " /><path fill="rgb(0,0,0)" stroke="rgb(0,0,0)" stroke-width="1" opacity="1" d="M 325.5 176 L 337.5 177 L 343.5 179 Q 352.9 183.1 359 190.5 L 367 206.5 L 368 218.5 L 364 233.5 L 354.5 246 L 340.5 254 L 325.5 256 L 310.5 252 L 298 242.5 L 290 228.5 L 288 213.5 L 292 198.5 L 301.5 186 L 310.5 180 L 325.5 176 Z " /><path fill="rgb(0,0,0)" stroke="rgb(0,0,0)" stroke-width="1" opacity="1" d="M 145 320 L 366.5 320 L 367 321.5 Q 356.8 338.3 342.5 351 Q 325.9 365.9 303.5 375 L 278.5 382 L 257.5 383 L 255.5 384 L 254.5 383 L 240.5 383 L 239.5 382 L 228.5 381 L 201.5 372 Q 176.4 360.1 159 340.5 L 145 320 Z " /></svg>