<svg width="512" height="512" version="1.1" xmlns="http://www.w3.org/2000/svg" desc="Created with imagetracer.js version 1.2.6" ><path fill="rgb(0,0,0)" stroke="rgb(0,0,0)" stroke-width="1" opacity="0.9803921568627451" d="M 158.5 48 L 353.5 48 L 354.5 49 L 369.5 50 L 396.5 57 L 424.5 70 Q 448.9 84.6 467 105.5 Q 482.6 123.4 493 146.5 L 500 165.5 L 504 181.5 L 505 193.5 L 506 194.5 L 506 205.5 L 507 206.5 L 507 305.5 L 506 306.5 L 506 317.5 L 502 339.5 L 493 365.5 Q 477.1 400.6 449.5 424 Q 430.9 440.4 406.5 451 L 379.5 460 L 362.5 463 L 354.5 463 L 353.5 464 L 17.5 464 L 9 458.5 L 5 449.5 L 5 206.5 L 6 205.5 L 6 194.5 L 7 193.5 L 9 176.5 L 19 146.5 Q 34.9 111.4 62.5 88 Q 81.3 71.8 105.5 61 L 128.5 53 L 149.5 49 L 157.5 49 L 158.5 48 Z M 161 80 L 160 81 L 152 81 L 137 84 L 122 89 Q 99 98 83 113 Q 48 142 38 197 L 38 207 L 37 208 L 37 432 L 352 432 L 353 431 L 361 431 L 372 429 L 391 423 Q 413 414 430 399 Q 452 379 465 350 L 471 332 L 474 316 L 474 306 L 475 305 L 475 208 L 474 207 L 473 191 L 465 163 Q 456 141 441 125 Q 413 91 361 81 L 353 81 L 352 80 L 161 80 Z " /><path fill="rgb(0,0,0)" stroke="rgb(0,0,0)" stroke-width="1" opacity="0" d="M 0 0 L 512 0 L 512 512 L 0 512 L 0 0 Z M 159 48 L 158 49 L 150 49 L 129 53 L 106 61 Q 81 72 63 88 Q 35 111 19 147 L 9 177 L 7 194 L 6 195 L 6 206 L 5 207 L 5 450 L 9 459 L 18 464 L 354 464 L 355 463 L 363 463 L 380 460 L 407 451 Q 431 440 450 424 Q 477 401 493 366 L 502 340 L 506 318 L 506 307 L 507 306 L 507 207 L 506 206 L 506 195 L 505 194 L 504 182 L 500 166 L 493 147 Q 483 123 467 106 Q 449 85 425 70 L 397 57 L 370 50 L 355 49 L 354 48 L 159 48 Z " /><path fill="rgb(0,0,0)" stroke="rgb(0,0,0)" stroke-width="1" opacity="0" d="M 160.5 80 L 351.5 80 L 352.5 81 L 360.5 81 Q 412.8 90.7 441 124.5 Q 455.8 140.7 465 162.5 L 473 190.5 L 474 206.5 L 475 207.5 L 475 304.5 L 474 305.5 L 474 315.5 L 471 331.5 L 465 349.5 Q 452.2 379.2 429.5 399 Q 412.9 413.9 390.5 423 L 371.5 429 L 360.5 431 L 352.5 431 L 351.5 432 L 37 432 L 37 207.5 L 38 206.5 L 38 196.5 Q 47.6 142.1 82.5 113 Q 99.1 98.1 121.5 89 L 136.5 84 L 151.5 81 L 159.5 81 L 160.5 80 Z " /></svg>